<?xml version="1.0" encoding="utf-8"?>
<!-- Generator: Adobe Illustrator 21.0.0, SVG Export Plug-In . SVG Version: 6.00 Build 0)  -->
<svg version="1.1" id="Layer_1" xmlns="http://www.w3.org/2000/svg" xmlns:xlink="http://www.w3.org/1999/xlink" x="0px" y="0px"
	 viewBox="0 0 50 50" style="enable-background:new 0 0 50 50;" xml:space="preserve">
<style type="text/css">
	.st0{fill:#EC155B;}
	.st1{fill:#252021;}
</style>
<path class="st0" d="M25.2,3.6c-11.9,0-21.5,9.6-21.5,21.5s9.6,21.5,21.5,21.5c11.9,0,21.5-9.6,21.5-21.5S37.1,3.6,25.2,3.6z
	 M19.3,9.6c3.3,0,6,2.7,6,6c0,3.3-2.7,6-6,6c-3.3,0-6-2.7-6-6C13.3,12.3,16,9.6,19.3,9.6z M16.1,37.8c-3.3,0-6-2.7-6-6
	c0-3.3,2.7-6,6-6c3.3,0,6,2.7,6,6C22.1,35.1,19.4,37.8,16.1,37.8z M25.2,28.1c-1.5,0-2.7-1.2-2.7-2.7c0-1.5,1.3-2.7,2.7-2.7
	c1.5,0,2.8,1.2,2.8,2.7C27.9,26.9,26.7,28.1,25.2,28.1z M31.5,40.7c-3.3,0-6-2.7-6-6c0-3.3,2.7-6,6-6c3.3,0,6,2.7,6,6
	C37.6,38,34.9,40.7,31.5,40.7z M34.5,24.6c-3.3,0-6-2.7-6-6c0-3.3,2.7-6,6-6c3.3,0,6,2.7,6,6C40.5,21.9,37.9,24.6,34.5,24.6z"/>
<path class="st1" d="M48.6,21.5c-1.5-6.1-3-9.9-8.3-14.4c3.7,0.5,6.7,1.1,8.6,4.1C50.8,14.2,49.9,17.9,48.6,21.5z"/>
<path class="st1" d="M43.8,39.3c-4.2,4.7-7.3,7.3-14.2,8.7c3.5,1.4,6.4,2.2,9.5,0.5C42.3,46.9,43.3,43.1,43.8,39.3z"/>
<path class="st1" d="M2.1,29.2c1.7,6,3.4,9.7,8.9,14c-3.7-0.3-6.7-0.8-8.8-3.7C0.1,36.7,0.9,32.9,2.1,29.2z"/>
<path class="st1" d="M7,10.4c4.4-4.5,7.6-7,14.5-8.1c-3.4-1.5-6.3-2.5-9.5-0.9S7.8,6.6,7,10.4z"/>
</svg>
