<?xml version="1.0" standalone="no"?>
<!DOCTYPE svg PUBLIC "-//W3C//DTD SVG 20010904//EN"
 "http://www.w3.org/TR/2001/REC-SVG-20010904/DTD/svg10.dtd">
<svg version="1.0" xmlns="http://www.w3.org/2000/svg"
 width="1000.000000pt" height="1000.000000pt" viewBox="0 0 1000.000000 1000.000000"
 preserveAspectRatio="xMidYMid meet">
<metadata>
Created by potrace 1.11, written by Peter Selinger 2001-2013
</metadata>
<g transform="translate(0.000000,1000.000000) scale(0.100000,-0.100000)"
fill="#000000" stroke="none">
<path d="M4656 9249 c-105 -15 -179 -38 -274 -86 -224 -110 -394 -349 -467
-655 -22 -92 -45 -242 -45 -290 0 -17 36 -18 698 -18 645 0 704 -2 789 -19
326 -67 582 -330 700 -716 27 -89 27 -95 31 -407 l3 -318 303 0 c167 0 432 -3
589 -7 l287 -6 0 310 c0 345 -10 460 -62 698 -100 463 -325 879 -606 1120
-268 231 -579 358 -968 395 -129 12 -893 11 -978 -1z"/>
<path d="M3593 7974 c-379 -83 -655 -326 -782 -687 -83 -237 -94 -401 -88
-1322 4 -601 7 -712 21 -785 93 -472 346 -760 761 -865 92 -23 248 -45 325
-45 l40 0 0 1235 0 1235 455 0 455 0 0 -633 0 -634 377 -6 c207 -4 468 -7 580
-7 l204 0 -4 793 c-3 766 -4 795 -25 891 -60 277 -154 461 -310 607 -94 88
-163 131 -282 175 -165 63 -187 64 -964 63 -551 -1 -714 -4 -763 -15z"/>
<path d="M6062 4853 l3 -608 605 0 605 0 3 608 2 607 -610 0 -610 0 2 -607z"/>
<path d="M4322 3573 c3 -362 3 -369 26 -411 17 -33 35 -49 70 -65 44 -21 62
-22 292 -22 212 0 249 2 276 17 30 16 33 16 70 -2 34 -18 59 -20 244 -20 201
0 207 1 257 25 28 15 57 32 63 40 11 13 19 10 59 -19 90 -65 171 -71 252 -16
l43 28 51 -29 c98 -55 203 -48 269 18 54 54 68 106 73 276 l5 147 -96 0 -96 0
0 -140 c0 -127 -2 -140 -19 -150 -35 -18 -71 -11 -102 19 -29 29 -29 30 -29
150 l0 121 -90 0 -90 0 0 -134 c0 -109 -3 -138 -16 -150 -22 -22 -66 -20 -98
5 -26 20 -26 22 -26 150 l0 129 -89 0 -89 0 -3 -119 c-6 -170 3 -163 -215
-159 -126 2 -175 7 -187 17 -14 11 -17 34 -17 132 l0 119 -95 0 -95 0 0 -119
c0 -95 -3 -123 -16 -135 -13 -13 -44 -16 -185 -16 -98 0 -179 4 -190 10 -18
10 -19 25 -19 340 l0 330 -96 0 -95 0 3 -367z"/>
<path d="M7192 3573 c3 -362 3 -369 26 -411 37 -70 85 -86 252 -87 119 0 141
3 183 22 l48 22 37 -24 c60 -39 120 -51 186 -36 31 7 69 24 86 37 l29 25 43
-23 c41 -22 53 -23 263 -23 189 0 224 2 251 17 30 16 33 16 70 -2 35 -18 60
-20 271 -20 254 0 280 4 337 58 16 15 39 50 52 77 22 45 24 64 24 193 l0 142
-90 0 -90 0 0 -125 c0 -166 12 -158 -233 -153 -137 2 -188 6 -200 17 -14 11
-17 34 -17 132 l0 119 -95 0 -95 0 0 -119 c0 -95 -3 -123 -16 -135 -13 -13
-44 -16 -187 -16 -95 0 -179 4 -186 9 -10 6 -17 36 -22 83 -10 103 -25 151
-62 200 -59 77 -170 114 -265 88 -52 -14 -125 -77 -155 -135 -15 -30 -22 -64
-25 -135 -3 -55 -9 -98 -16 -102 -17 -12 -175 -9 -197 2 -18 10 -19 25 -19
340 l0 330 -96 0 -95 0 3 -367z m718 -131 c44 -36 44 -158 -1 -194 -31 -26
-75 -23 -104 7 -22 21 -25 33 -25 90 0 57 3 69 25 90 29 30 73 33 105 7z"/>
<path d="M4764 3860 c-56 -22 -73 -116 -31 -165 32 -38 93 -44 130 -15 16 13
33 34 40 49 10 25 11 25 14 4 3 -12 18 -34 36 -49 26 -22 38 -25 71 -21 56 8
86 44 86 102 0 113 -141 145 -185 42 l-13 -32 -10 26 c-22 55 -83 81 -138 59z"/>
<path d="M3649 3785 c-71 -38 -69 -154 3 -191 35 -18 62 -18 98 1 32 17 60 61
60 95 0 34 -28 78 -60 95 -36 19 -67 19 -101 0z"/>
<path d="M907 3636 c-97 -27 -160 -107 -177 -227 -5 -35 -10 -200 -10 -366 l0
-303 95 0 95 0 0 330 0 331 25 24 c43 44 51 35 58 -72 11 -157 68 -244 181
-278 90 -27 174 -13 228 37 l30 28 29 -25 c16 -13 46 -29 67 -35 48 -13 559
-13 675 0 126 15 183 37 393 153 l185 102 -6 50 c-15 127 -55 192 -143 233
-56 26 -63 27 -281 30 l-224 4 7 -54 c3 -29 9 -71 12 -94 l6 -41 183 -5 c167
-5 225 -15 225 -36 0 -12 -210 -119 -277 -141 -58 -20 -84 -21 -380 -20 -219
0 -329 4 -353 12 -33 11 -35 15 -43 72 -21 165 -54 236 -128 280 -30 18 -54
20 -229 22 -137 2 -209 -2 -243 -11z m388 -190 c14 -10 20 -30 23 -78 5 -85
-13 -118 -66 -118 -60 0 -72 20 -72 122 l0 88 48 0 c27 0 57 -6 67 -14z"/>
<path d="M3980 3306 c0 -249 -3 -272 -48 -320 -45 -47 -79 -56 -218 -56 -118
0 -130 2 -170 25 -78 46 -84 66 -84 274 l0 181 -96 0 -96 0 4 -197 c3 -196 3
-199 32 -258 36 -73 119 -158 183 -188 41 -18 70 -22 194 -25 216 -5 292 19
387 122 24 26 56 73 70 104 27 56 27 60 30 315 l4 257 -96 0 -96 0 0 -234z"/>
<path d="M6860 3300 c0 -263 -3 -279 -59 -319 -44 -32 -135 -51 -239 -51 l-94
0 6 -27 c3 -16 11 -59 17 -97 l11 -68 137 4 c120 3 143 7 191 29 73 34 145
109 184 189 l31 65 3 258 3 257 -95 0 -96 0 0 -240z"/>
<path d="M2414 2951 c-36 -16 -64 -60 -64 -103 0 -32 7 -47 35 -75 32 -32 39
-35 78 -30 57 8 97 52 97 107 0 73 -81 129 -146 101z"/>
<path d="M8414 2910 c-56 -22 -73 -116 -31 -165 32 -38 93 -44 130 -15 16 13
33 34 40 49 10 25 11 25 14 4 3 -12 18 -34 36 -49 26 -22 38 -25 71 -21 56 8
86 44 86 102 0 113 -141 145 -185 42 l-13 -32 -10 26 c-22 55 -83 81 -138 59z"/>
<path d="M9134 2901 c-36 -16 -64 -60 -64 -103 0 -32 7 -47 35 -75 32 -32 39
-35 78 -30 57 8 97 52 97 107 0 73 -81 129 -146 101z"/>
<path d="M4691 2265 c-71 -20 -110 -45 -165 -106 -71 -79 -90 -140 -90 -289 0
-151 20 -215 93 -293 79 -84 197 -126 325 -114 190 18 310 134 338 327 32 215
-56 398 -220 461 -75 28 -207 35 -281 14z m214 -144 c50 -22 87 -65 110 -125
14 -35 16 -67 13 -143 -4 -105 -22 -156 -70 -200 -85 -80 -236 -66 -310 27
-57 72 -73 232 -32 329 46 109 180 162 289 112z"/>
<path d="M5527 2266 c-148 -40 -216 -175 -152 -303 40 -79 84 -104 264 -153
148 -40 192 -80 160 -145 -23 -46 -62 -68 -128 -73 -83 -6 -142 22 -170 82
-12 23 -21 48 -21 56 0 10 -16 11 -77 6 -43 -4 -79 -9 -81 -11 -9 -9 30 -115
56 -153 58 -86 167 -129 302 -119 98 8 140 21 192 60 121 93 124 294 5 376
-47 32 -96 50 -212 82 -105 28 -153 53 -161 83 -13 54 44 96 131 96 70 0 113
-22 133 -70 l17 -40 79 0 79 0 -5 44 c-7 56 -40 110 -87 141 -76 50 -221 68
-324 41z"/>
<path d="M1070 1988 c0 -297 -6 -347 -43 -373 -38 -27 -104 -15 -134 24 -7 9
-15 35 -19 58 l-6 43 -42 -6 c-22 -3 -56 -7 -75 -10 l-33 -5 6 -51 c19 -143
125 -220 277 -204 99 10 169 58 206 141 15 35 18 81 21 353 l4 312 -81 0 -81
0 0 -282z"/>
<path d="M1606 2128 c-30 -79 -100 -258 -154 -398 l-99 -255 80 -3 c57 -2 83
1 88 10 5 7 21 48 35 91 l27 77 163 0 162 0 32 -90 32 -90 84 0 c46 0 84 4 84
9 0 5 -69 184 -154 398 l-154 388 -85 3 -85 3 -56 -143z m194 -202 c27 -76 50
-140 50 -142 0 -2 -47 -4 -105 -4 -58 0 -105 3 -105 6 0 6 75 215 95 267 4 10
9 16 11 15 2 -2 26 -66 54 -142z"/>
<path d="M2270 1870 l0 -401 73 3 72 3 5 300 5 300 76 -300 75 -300 76 -3 75
-3 41 158 c23 87 58 226 79 308 l38 150 3 -308 2 -308 73 3 72 3 3 398 2 398
-122 -3 c-120 -3 -121 -3 -129 -28 -4 -14 -36 -132 -70 -263 -35 -135 -65
-233 -70 -225 -4 7 -32 110 -64 228 -31 118 -61 232 -67 253 l-11 37 -119 0
-118 0 0 -400z"/>
<path d="M3620 1870 l0 -400 80 0 80 0 0 175 0 175 160 0 160 0 0 -175 0 -175
80 0 80 0 0 400 0 400 -80 0 -80 0 0 -160 0 -160 -160 0 -160 0 0 160 0 160
-80 0 -80 0 0 -400z"/>
<path d="M6920 1870 l0 -401 78 3 77 3 3 398 2 397 -80 0 -80 0 0 -400z"/>
<path d="M8156 2128 c-30 -79 -100 -258 -154 -398 l-99 -255 80 -3 c57 -2 83
1 88 10 5 7 21 48 35 91 l27 77 163 0 162 0 32 -90 32 -90 84 0 c46 0 84 4 84
9 0 5 -69 184 -154 398 l-154 388 -85 3 -85 3 -56 -143z m194 -202 c27 -76 50
-140 50 -142 0 -2 -47 -4 -105 -4 -58 0 -105 3 -105 6 0 6 75 215 95 267 4 10
9 16 11 15 2 -2 26 -66 54 -142z"/>
<path d="M6140 1866 l0 -396 80 0 80 0 0 149 0 148 139 5 c132 5 142 7 193 35
36 21 62 45 83 78 27 44 30 57 30 129 0 114 -35 175 -125 222 -30 16 -67 19
-257 22 l-223 4 0 -396z m379 248 c67 -26 88 -105 42 -158 -28 -33 -76 -46
-171 -46 l-90 0 0 110 0 110 90 0 c58 0 103 -6 129 -16z"/>
<path d="M7200 2195 l0 -65 120 0 120 0 0 -330 0 -330 80 0 80 0 0 330 0 330
120 0 120 0 0 65 0 65 -320 0 -320 0 0 -65z"/>
<path d="M8820 1865 l0 -395 280 0 280 0 0 65 0 65 -205 0 -205 0 0 330 0 330
-75 0 -75 0 0 -395z"/>
</g>
</svg>
