<?xml version="1.0" encoding="utf-8"?>
<!-- Generator: Adobe Illustrator 21.0.0, SVG Export Plug-In . SVG Version: 6.00 Build 0)  -->
<svg version="1.1" id="Layer_1" xmlns="http://www.w3.org/2000/svg" xmlns:xlink="http://www.w3.org/1999/xlink" x="0px" y="0px"
	 viewBox="0 0 250 250" style="enable-background:new 0 0 250 250;" xml:space="preserve">
<style type="text/css">
	.st0{fill:#FFFFFF;}
</style>
<g>
	<path d="M125,24C69.3,24,24,69.3,24,125c0,17.4,4.5,34.5,13,49.6l-12.8,45.8c-0.4,1.5,0,3.1,1.1,4.2c0.8,0.9,2,1.3,3.2,1.3
		c0.4,0,0.7,0,1.1-0.1L77.3,214c14.6,7.8,31.1,12,47.7,12c55.7,0,101-45.3,101-101S180.7,24,125,24z M175.8,160.6
		c-2.2,6-12.5,11.4-17.5,12.2c-4.5,0.7-10.1,0.9-16.3-1c-3.8-1.2-8.6-2.8-14.8-5.4c-26-11.1-43-37-44.3-38.7
		c-1.3-1.7-10.6-13.9-10.6-26.5s6.7-18.8,9.1-21.4c2.4-2.6,5.2-3.2,6.9-3.2s3.5,0,5,0.1c1.6,0.1,3.7-0.6,5.8,4.4
		c2.2,5.1,7.3,17.7,8,19c0.6,1.3,1.1,2.8,0.2,4.5c-0.9,1.7-1.3,2.8-2.6,4.3c-1.3,1.5-2.7,3.3-3.9,4.5c-1.3,1.3-2.6,2.7-1.1,5.2
		c1.5,2.6,6.7,10.9,14.4,17.7c9.9,8.7,18.3,11.4,20.8,12.7c2.6,1.3,4.1,1.1,5.6-0.6c1.5-1.7,6.5-7.5,8.2-10c1.7-2.6,3.5-2.1,5.8-1.3
		c2.4,0.9,15.1,7,17.7,8.3s4.3,1.9,5,3C178,149.5,178,154.7,175.8,160.6z"/>
	<path class="st0" d="M175.8,160.6c-2.2,6-12.5,11.4-17.5,12.2c-4.5,0.7-10.1,0.9-16.3-1c-3.8-1.2-8.6-2.8-14.8-5.4
		c-26-11.1-43-37-44.3-38.7c-1.3-1.7-10.6-13.9-10.6-26.5s6.7-18.8,9.1-21.4c2.4-2.6,5.2-3.2,6.9-3.2s3.5,0,5,0.1
		c1.6,0.1,3.7-0.6,5.8,4.4c2.2,5.1,7.3,17.7,8,19c0.6,1.3,1.1,2.8,0.2,4.5c-0.9,1.7-1.3,2.8-2.6,4.3c-1.3,1.5-2.7,3.3-3.9,4.5
		c-1.3,1.3-2.6,2.7-1.1,5.2c1.5,2.6,6.7,10.9,14.4,17.7c9.9,8.7,18.3,11.4,20.8,12.7c2.6,1.3,4.1,1.1,5.6-0.6
		c1.5-1.7,6.5-7.5,8.2-10c1.7-2.6,3.5-2.1,5.8-1.3c2.4,0.9,15.1,7,17.7,8.3s4.3,1.9,5,3C178,149.5,178,154.7,175.8,160.6z"/>
</g>
</svg>
