<?xml version="1.0" encoding="utf-8"?>
<!-- Generator: Adobe Illustrator 18.0.0, SVG Export Plug-In . SVG Version: 6.00 Build 0)  -->
<!DOCTYPE svg PUBLIC "-//W3C//DTD SVG 1.1//EN" "http://www.w3.org/Graphics/SVG/1.1/DTD/svg11.dtd">
<svg version="1.1" id="Layer_1" xmlns="http://www.w3.org/2000/svg" xmlns:xlink="http://www.w3.org/1999/xlink" x="0px" y="0px"
	 viewBox="0 0 283.5 283.5" enable-background="new 0 0 283.5 283.5" xml:space="preserve">
<g id="_x33_">
	<g>
		<g>
			<polygon fill="#E6E7E8" points="111.1,142.5 110.9,145.3 109.7,169.2 143.4,199.8 155.2,189 174.3,171.6 175.7,142.3 			"/>
			<path fill="#E6E7E8" d="M148.3,52.3c-8.6-3.3-19.9-3.9-28.6-1.3c-8.8,2.7-18.2,8.4-19.9,17.4c-1.2,6.5,1.7,13.1,0.6,19.7
				c-0.3,1.7-0.8,5.7-3.5,3.8c-1.2-0.8-0.4-2.9-1.6-3.9c-2.7-2.1-4,1.2-4.3,3.3c-0.8,7.2,0,15.1,3,21.7c1.8,3.9,4.5,5.1,7.1,8
				c2.9,3.2,2.1,9.1,3,12.9c0.6,2.6,1.7,5,3.2,7.1c3.2,4.5,9,6.9,12.6,11c3.4,3.9,6.6,7.8,11.5,10.4c2.9,1.6,7.1,1.8,11,1.9
				c0.5,0,1,0.1,1.5,0.1L149.9,52C149.4,52.1,148.8,52.2,148.3,52.3z"/>
			<path fill="#E6E7E8" d="M201.4,97c0-2-1-5.5-3.9-3.7c-1.3,0.8-0.8,3-2,3.7c-3,1.6-3-2.4-3.1-4.1c-0.4-6.7,3.1-12.9,2.6-19.5
				c-0.7-9.2-9.5-15.8-18-19.4c-7.9-3.3-18.4-3.9-27-2l-5.7,112.6c3.4,0.3,6.9,0.3,9.6-0.9c5.1-2.1,8.7-5.7,12.5-9.2
				c4.1-3.8,10.1-5.5,13.7-9.7c1.7-2,3-4.2,3.9-6.8c1.3-3.7,1.1-9.7,4.3-12.5c2.9-2.6,5.7-3.5,7.9-7.2
				C199.9,111.9,201.4,104.2,201.4,97z"/>
			<path fill="#E6E7E8" d="M95.3,82.5c1,3.8,1,6.6,0.7,10.4c0,0.5-0.1,1.3-0.2,2.1l5.1,0.3c0.1-1,0.1-2,0.1-2.5
				c0-2.8,0.2-4.9,0.5-7.7c0.4-3.7,0.1-7.5,0.7-11.1c1.5-9.6,10.7-15.9,20.5-16.1c7.2-0.2,14.4,1.6,21.6,2
				c8.9,0.5,13.1-3.3,20.4-7.1c1.9-1,0.8-1.2,2.8-0.6c1.3,0.4,2.8,2.1,3.9,2.8c6.5,4.2,18.3,8.5,19.8,16.7c1.2,6.4,0.6,12.9,0,19.3
				c-0.1,0.9-1.2,5.8-1.1,9l4,0.2c1.5-3.8,3.5-9,4-11c2.1-8.1,1.9-11.7,2.5-15.2c2.1-12.2,3.4-24-4.2-34.8
				c-8.2-11.5-20.8-18.6-27.7-18.2c-0.4,0-5.1,0.2-4.5,0.7c-2.4-2.2-6.7-2.6-9.7-3.4c-16-4.4-37,3.9-49.3,13.4
				c-13,10-11.8,23.7-11.1,36.8C94.4,73.1,94.1,78.1,95.3,82.5z"/>
		</g>
		<g>
			<path fill="#E6E7E8" d="M123.6,271.7h63.5c-1-7.5-2.2-15.1-3.8-22.5c-3.3-15.8-6.1-28.3-17.7-39.5c-5-4.8-14.9-20.4-21.9-19
				c-5.9,0-22.5,23.8-24.2,28.9c-0.6,1.9-0.9,3.6-0.9,5.2c-0.1,4.6,1.6,8.4,2.4,14.8C122.3,250.3,122.9,261,123.6,271.7z"/>
			<path fill="#E6E7E8" d="M135.6,261.7l4.4,10h24l2.2-6.8c0.1-0.2,0.1-0.5,0-0.7l-13.6-49.7c-0.4-1.6-0.4-3.3,0.3-4.6l3.3-7.6
				c0.1-0.5,0-1-0.4-1.4c-1.6-1.8-3.3-3.5-4.9-5.3c-1.1-1.2-2.4-2.3-3.1-3.8c-0.5-1.1-1.9-3.5-3.2-2.6c-1.1,0.8-1.4,2.1-2.1,3.2
				c-0.7,1.1-1.8,2-2.6,2.9c-1.2,1.3-2.4,2.7-3.7,4c-0.3,0.3-0.4,0.9-0.2,1.4l4.5,8.2c0.8,1.5,1.2,3.2,1,4.7l-6,47.5
				C135.4,261.2,135.5,261.5,135.6,261.7z"/>
			<path fill="#E6E7E8" d="M270.4,271.7c-0.7-6.4-3.2-34-4.5-42.3c-1.6-9.8-3.6-20-9.8-27.8c-6.8-8.5-9.7-12.8-20.5-14.3
				c-11.9-1.7-48.5-9.2-55.4-12.8c-3.8,15.9-6.4,32.4-10.1,48.4c-0.1,0.3-6.3,26.6-11.3,48.8H270.4z"/>
			<path fill="#E6E7E8" d="M175.7,158.5l-29.9,29.4c-0.4,0.4-1.2,0.4-1.7-0.1l-34-33.7l-13.9,25.2l26.9,46l21.1-34.8
				c0.4-0.7,1.5-0.6,2.1,0.2l27.2,39.4l10.9-47.6L175.7,158.5z"/>
			<path fill="#E6E7E8" d="M175.1,271.7c9.4-22.6,20.4-40.4,29.5-53c-5.7-3-11.5-6-17.2-9l19-8.6c-1.1-3.3-3.6-8.4-7-15.3
				c-5-10.4-16.8-18.4-19.5-19.5L169,225l-3.8,14.6l-7.3,32.1H175.1z"/>
		</g>
		<g>
			<path fill="#E6E7E8" d="M145.2,271.7c-6.8-21.3-16.1-42.4-23.6-63.2L108.6,172c0,0-0.3,0.1-1,0.3c-2.4,0.6-8.7,4.6-16.6,6.7
				c-15.4,4.2-31.4,11-47.1,13.6c-27.1,4.4-30.2,49.6-30.7,79.2H145.2z"/>
			<path fill="#E6E7E8" d="M85.7,221.8c12.8,15.6,25.8,29.7,38,49.9h22.6l-13.7-35.3l-10.9-28l-15-46.2
				c-2.4,0.6-26.9,26.6-27.4,29.6l27.4,11L85.7,221.8z"/>
		</g>
	</g>
</g>
</svg>
