<?xml version="1.0" encoding="utf-8"?>
<!-- Generator: Adobe Illustrator 21.0.0, SVG Export Plug-In . SVG Version: 6.00 Build 0)  -->
<svg version="1.1" id="Layer_1" xmlns="http://www.w3.org/2000/svg" xmlns:xlink="http://www.w3.org/1999/xlink" x="0px" y="0px"
	 viewBox="0 0 1335 2000" style="enable-background:new 0 0 1335 2000;" xml:space="preserve">
<style type="text/css">
	.st0{fill:#414A51;}
</style>
<path class="st0" d="M674.5,1000c130.4,0,236.1-105.7,236.1-236.1S804.9,527.8,674.5,527.8S438.4,633.5,438.4,763.9
	S544.1,1000,674.5,1000z M453.1,1309.9c0,24.5,19.7,44.3,44.3,44.3c24.6,0,44.3-19.7,44.3-44.3c0-24.5-19.7-44.3-44.3-44.3
	S453.1,1285.4,453.1,1309.9z M851.6,1060.1v90.4c67.3,13.7,118.1,73.4,118.1,144.6v76.9c0,14-10,26.2-23.8,29l-59.4,11.8
	c-7.9,1.7-15.7-3.5-17.3-11.6l-5.7-29c-1.7-7.9,3.5-15.9,11.6-17.3l35.6-7.2v-52.6c0-115.8-177.1-120.1-177.1,3.5v49.3l35.6,7.2
	c7.9,1.7,13.1,9.4,11.6,17.3l-5.7,29c-1.7,7.9-9.4,13.1-17.3,11.6l-57.6-7.7c-14.6-2-25.5-14.4-25.5-29.3v-80.8
	c0-71.2,50.7-130.8,118.1-144.6v-83.4c-4.1,1.3-8.1,2-12.2,3.5c-33.2,11.6-68.8,18.1-105.9,18.1s-72.7-6.5-105.9-18.1
	c-13.7-4.8-27.5-7.7-41.7-9.6v150.5c42.6,12.7,73.8,51.8,73.8,98.5c0,57-46.3,103.3-103.3,103.3s-103.3-46.3-103.3-103.3
	c0-46.7,31.2-85.8,73.8-98.5v-148.3C350.8,1083,261.3,1184.1,261.3,1307v82.6c0,45.6,37.1,82.6,82.6,82.6H1005
	c45.6,0,82.6-37.1,82.6-82.6V1307C1087.7,1174.1,982.9,1066.6,851.6,1060.1L851.6,1060.1z"/>
</svg>
